<svg width="1440" height="305" viewBox="0 0 1440 305" fill="none" xmlns="http://www.w3.org/2000/svg">
<path fill-rule="evenodd" clip-rule="evenodd" d="M0 107.613L40 83.6522C80 58.5509 160 9.48932 240 1.50254C320 -7.6252 400 25.4629 480 83.6522C560 140.701 640 222.85 720 255.938C800 289.026 880 271.912 960 230.837C1040 189.762 1120 124.727 1200 107.613C1280 91.639 1360 124.727 1400 140.701L1440 156.674V305H1400C1360 305 1280 305 1200 305C1120 305 1040 305 960 305C880 305 800 305 720 305C640 305 560 305 480 305C400 305 320 305 240 305C160 305 80 305 40 305H0V107.613Z" fill="#096406"/>
</svg>
